<svg width="50" height="50" viewBox="0 0 50 50" fill="none" xmlns="http://www.w3.org/2000/svg">
<rect width="50" height="50" rx="8" fill="black"/>
<path d="M15.2356 35.875L6.32937 30.4844V24.0156L15.2356 18.6875V24.2969L9.89187 27.2969L15.2356 30.2812V35.875ZM18.5625 39V11.5H26.0156C28.0156 11.5 29.4688 11.9896 30.375 12.9688C31.2917 13.9375 31.75 15.5417 31.75 17.7812V18.9844C31.75 20.276 31.5156 21.3229 31.0469 22.125C30.5885 22.9271 29.8854 23.4531 28.9375 23.7031C30.1771 24.0156 31.0052 24.75 31.4219 25.9062C31.849 27.0521 32.0625 28.4531 32.0625 30.1094C32.0625 31.8906 31.8958 33.4479 31.5625 34.7812C31.2292 36.1146 30.625 37.151 29.75 37.8906C28.875 38.6302 27.6302 39 26.0156 39H18.5625ZM23.9375 21.8594H25.0625C25.5729 21.8594 25.901 21.6615 26.0469 21.2656C26.1927 20.8698 26.2656 20.3958 26.2656 19.8438V17.0781C26.2656 16.1927 25.875 15.75 25.0938 15.75H23.9375V21.8594ZM24.4844 34.1562C25.9115 34.1562 26.625 33.4792 26.625 32.125V28.6875C26.625 27.9062 26.5052 27.2917 26.2656 26.8438C26.0365 26.3854 25.599 26.1562 24.9531 26.1562H23.9375V34.125C24.1667 34.1458 24.349 34.1562 24.4844 34.1562ZM34.7644 35.875V30.2812L40.1081 27.2969L34.7644 24.2969V18.6875L43.6706 24.0156V30.4844L34.7644 35.875Z" fill="white"/>
</svg>
